<svg width="152" height="32" viewBox="0 0 152 32" fill="none" xmlns="http://www.w3.org/2000/svg">
<g id="a">
<g id="Group">
<path id="Vector" d="M56.2746 12.6314H56.2531C54.9823 12.6314 53.7976 13.0791 52.8715 13.9319V6.74691C52.8715 6.68295 52.8068 6.61899 52.7422 6.61899H49.9852C49.9206 6.61899 49.856 6.68295 49.856 6.74691V25.2957C49.856 25.3597 49.9206 25.4237 49.9852 25.4237H52.7422C52.8068 25.4237 52.8715 25.3597 52.8715 25.2957V17.7483C52.8715 16.3625 53.9699 15.2325 55.3915 15.1685C56.5115 15.1045 57.5454 15.7442 57.9331 16.7889C58.1916 17.4924 58.17 18.2387 58.17 18.9849V25.2957C58.17 25.3597 58.2346 25.4237 58.2993 25.4237H61.0132C61.0778 25.4237 61.1424 25.3597 61.1424 25.2957V17.4285C61.1424 14.8061 58.967 12.674 56.2746 12.6527V12.6314Z" fill="#F5F6F8"/>
<path id="Vector_2" d="M36.1142 12.1836H33.3787C33.3141 12.1836 33.2495 12.2476 33.2495 12.3116V20.0722C33.2495 20.7332 32.9695 21.3515 32.4956 21.7992C31.9787 22.2896 31.2895 22.5454 30.5571 22.5028C29.2002 22.4388 28.1232 21.3301 28.1232 19.9869V12.2902C28.1232 12.2263 28.0586 12.1623 27.994 12.1623H25.2586C25.194 12.1623 25.1293 12.2263 25.1293 12.2902V19.9443C25.1293 22.8439 27.5632 25.2744 30.5356 25.3597H30.7079C32.1941 25.3597 33.5941 24.8054 34.6711 23.782C35.7049 22.7799 36.2865 21.4581 36.2865 20.0509V12.2902C36.2865 12.2263 36.2219 12.1623 36.1573 12.1623L36.1142 12.1836Z" fill="#F5F6F8"/>
<path id="Vector_3" d="M43.3728 17.4072C41.8005 17.1513 41.1328 16.7036 41.1328 15.8721C41.1328 15.0406 41.8651 14.5715 42.9851 14.5715C44.1051 14.5715 44.8159 15.1045 45.139 15.8934C45.139 15.9147 45.1606 15.936 45.2036 15.9574H45.2898L47.5514 15.0193C47.5944 14.9979 47.6375 14.934 47.616 14.8913C46.9267 13.207 45.1821 12.205 42.9851 12.205C39.862 12.205 38.225 14.0598 38.225 15.8934C38.225 17.727 39.7327 19.3686 42.8128 19.8803C44.4282 20.1788 45.1175 20.6692 45.1175 21.4794C45.1175 22.2896 44.2775 22.8865 42.8774 22.8865C41.4774 22.8865 40.8312 22.3109 40.3789 21.4367C40.3789 21.3941 40.3143 21.3728 40.2712 21.3728H40.2281L37.8589 22.3748C37.8373 22.3748 37.8158 22.3962 37.7943 22.4388V22.5241C38.3112 23.6114 39.6681 25.4237 42.8344 25.4237C46.0006 25.4237 48.0683 23.4195 48.0683 21.4367C48.0683 19.4539 46.539 17.9402 43.3728 17.4285V17.4072Z" fill="#F5F6F8"/>
<path id="Vector_4" d="M17.5907 6.59341H10.7155C10.6552 6.59341 10.5971 6.61686 10.554 6.6595C10.5109 6.70214 10.4915 6.75545 10.4915 6.81088V25.1828C10.4915 25.3021 10.5927 25.4002 10.7155 25.4002H13.27C13.3928 25.4002 13.494 25.3021 13.494 25.1828L13.5091 17.9935C13.5091 17.9189 13.5716 17.8592 13.647 17.8592H17.5886C20.8043 17.8592 23.3244 15.3839 23.3244 12.222C23.3244 10.6891 22.7342 9.26913 21.6637 8.21803C20.5954 7.16906 19.148 6.59128 17.5886 6.59128H17.5907V6.59341ZM19.6994 14.0385C19.1889 14.6227 18.4588 14.9574 17.6403 14.983H15.8655C15.0922 14.9873 14.4245 15.4691 14.2027 16.1812L14.1165 16.4563C14.1036 16.4968 14.0648 16.5266 14.0196 16.5266H13.5974C13.5393 16.5266 13.494 16.4819 13.494 16.4286V9.78082C13.494 9.60386 13.6427 9.46315 13.8257 9.46315H17.4335C18.9261 9.46315 20.1732 10.5228 20.3348 11.9278C20.4274 12.7167 20.2013 13.465 19.6994 14.0385Z" fill="#F5F6F8"/>
</g>
<g id="Group_2">
<path id="Vector_5" d="M99.6755 17.0447H103.036L101.356 10.2435L99.6755 17.0447Z" fill="#F5F6F8"/>
<path id="Vector_6" d="M120.461 4.03922H75.0566C71.8688 4.03922 69.3057 6.59767 69.3057 9.73179V22.2469C69.3057 25.4024 71.8903 27.9395 75.0566 27.9395H120.461C123.648 27.9395 126.211 25.381 126.211 22.2469V9.73179C126.211 6.57635 123.627 4.03922 120.461 4.03922ZM78.8689 20.1575C80.4844 20.1575 81.389 19.262 81.4967 17.7696H83.6936C83.5644 20.7118 81.6475 22.3748 78.8689 22.3748C76.0904 22.3748 74.0442 20.456 74.0442 17.066V14.934C74.0442 11.544 76.0043 9.62519 78.8689 9.62519C81.7336 9.62519 83.6075 11.3521 83.6936 14.3797H81.4967C81.4321 12.8019 80.5274 11.9278 78.8689 11.9278C77.2104 11.9278 76.2412 12.9512 76.2412 14.934V17.066C76.2412 19.0275 77.1458 20.1575 78.8689 20.1575ZM94.7 22.2043H92.5031V17.0021H87.8506V22.2043H85.6537V9.79575H87.8506V14.6781H92.5031V9.79575H94.7V22.2043ZM104.306 22.2043L103.596 19.3473H99.094L98.3832 22.2043H96.1431L99.2017 9.79575H103.466L106.503 22.2043H104.263H104.306ZM110.423 22.2043H108.226V9.64651H110.423V22.2043ZM121.473 22.2043H117.165L114.322 10.2435V22.2043H112.211V9.79575H116.411L119.341 21.8418V9.79575H121.451V22.2043H121.473Z" fill="#F5F6F8"/>
</g>
</g>
</svg>
